<svg version="1" xmlns="http://www.w3.org/2000/svg" width="933.333" height="933.333" viewBox="0 0 700.000000 700.000000"><path d="M326.5.6c-45 4.5-72.1 10.7-107 24.6-102.8 40.9-182 131.6-208.9 239.3C3 294.8.5 316.3.5 350c0 48.2 7.3 86.6 24.7 130.5 40.9 102.8 131.6 182 239.3 208.9 30.3 7.6 51.8 10.1 85.5 10.1 48.2 0 86.6-7.3 130.5-24.7 102.8-40.9 182-131.6 208.9-239.3 7.6-30.3 10.1-51.8 10.1-85.5s-2.5-55.2-10.1-85.5C668.7 181.4 617.8 109 545.5 59.8c-45.5-31-95.5-49.6-154-57.4-10.4-1.4-56.4-2.7-65-1.8zm196.3 180.7c5.8 3.8 9.2 9.3 9.9 15.9.7 6.8-.9 11.8-5 16.5-6.7 7.7-1.4 7.3-93 7.3-90.5 0-85.2.4-91.9-6.4-4.1-4-5.9-8.8-5.9-15 0-6.4 1.1-9.4 5.3-14.1 6.9-8 1.1-7.5 93.9-7.2l82.5.2 4.2 2.8zm-.2 75.2c9 5.5 12.8 17.6 8.5 27.1-2.3 5-9.3 11.1-14 12.1-2 .5-54.4.8-116.6.8-108.1 0-113.2-.1-116.7-1.9-8.9-4.3-13.5-12.6-12.5-22.3.8-7.7 4.5-12.9 11.7-16.6l5.4-2.7 114.6.2 114.7.3 4.9 3zm-6.1 72.6c6.3 1.7 11.2 5.6 14 11.2 6.3 12.8-.5 27.3-14.5 30.7-3.2.7-50.1 1-160.5.8-150.1-.3-156.1-.4-159.5-2.2-8.2-4.3-12.3-10.9-12.3-19.6 0-10.2 6-17.9 16.3-21.1 4.1-1.2 311.8-1.1 316.5.2zm-84 76.2c8.2 3.7 12.8 11 12.7 20.3-.1 9.1-6.7 18-14.9 20.3-5.4 1.5-226.3 1.5-231.8 0-6-1.7-13-9.3-14.4-15.8-1.2-5.7-.7-9.9 2-15.2 3-6 7.8-9.2 16.4-11.2 1.1-.3 52.4-.4 114-.3 105.5.1 112.2.2 116 1.9zm-64.9 75.6c7.2 3.3 12.4 11.7 12.4 20.3 0 5.5-4.8 13.8-10 17.3l-4.5 3-82.4.3-82.5.2-5.2-2.5c-6.1-3-9.9-7.9-11.4-15-2-9.2 2.9-19.2 11.2-23.4 4.3-2.1 4.7-2.1 86.3-2.1 77.6 0 82.2.1 86.1 1.9z"/></svg>